<?xml version="1.0" ?><svg data-name="Layer 2" id="f7cf8350-4ed8-479b-a688-7d9fd87804b9" viewBox="0 0 38 38" xmlns="http://www.w3.org/2000/svg"><circle cx="19" cy="29.048" r="1.523" fill="#EF0611"/><path d="M18.975,25.257h0a.969.969,0,0,1-.969-.929l-.345-7.207A1.34,1.34,0,0,1,19,15.725h0a1.341,1.341,0,0,1,1.339,1.4l-.4,7.2A.969.969,0,0,1,18.975,25.257Z" fill="#EF0611"/><path d="M20.044,5.883h0M19,7.691,26.251,20.25,33.5,32.809H4.5L11.749,20.25,19,7.691m0-3.7a1.281,1.281,0,0,0-1.121.647L9.584,19,1.289,33.367A1.3,1.3,0,0,0,2.41,35.309H35.59a1.3,1.3,0,0,0,1.121-1.942L28.416,19l-8.3-14.367A1.281,1.281,0,0,0,19,3.986Z" fill="#EF0611"/></svg>